# xmcd CD database file
#
# Track frame offsets:
#	150
#	12176
#	24965
#	42519
#	54538
#	67630
#	80025
#	91047
#	102405
#	117579
#	130523
#	142010
#	158221
#	170731
#	180591
#	192252
#	203426
#	216980
#
# Disc length: 3061 seconds
#
# Revision: 0
# Processed by: cddbd v1.4PL0 Copyright (c) Steve Scherf et al.
# Submitted via: CDex 1.40Release
#
DISCID=f20bf312
DTITLE=Hank Thompson - Famous Country Music Makers
DYEAR=1999
DGENRE=Country
TTITLE0=There's A Honky Tonk Angel (Who'll Take Me Back In)
TTITLE1=I Recall A Gypsy Woman
TTITLE2=Mama Don't 'low
TTITLE3=Wait A Little Longer Baby
TTITLE4=Lovin' On Back Streets
TTITLE5=Whatever's Left
TTITLE6=Fair Weather Love
TTITLE7=Red Necks, White Socks And Blue Ribbon Beer
TTITLE8=Country Bumpkin
TTITLE9=I've Come Awful Close
TTITLE10=Oklahoma Hills
TTITLE11=The Mark Of A Heel
TTITLE12=Humpty Dumpty Heart
TTITLE13=Green Light
TTITLE14=Smokey The Bar
TTITLE15=Squaws Along The Yukon
TTITLE16=The Wild Side Of Life
TTITLE17=Next Time I Fall In Love (I Won't)
EXTD=YEAR: 1999 ID3G: 2
EXTT0=
EXTT1=
EXTT2=
EXTT3=
EXTT4=
EXTT5=
EXTT6=
EXTT7=
EXTT8=
EXTT9=
EXTT10=
EXTT11=
EXTT12=
EXTT13=
EXTT14=
EXTT15=
EXTT16=
EXTT17=
PLAYORDER=
